<?xml version="1.0" encoding="iso-8859-1"?>
<!-- Generator: Adobe Illustrator 19.0.0, SVG Export Plug-In . SVG Version: 6.00 Build 0)  -->
<svg version="1.1" id="Capa_1" xmlns="http://www.w3.org/2000/svg" xmlns:xlink="http://www.w3.org/1999/xlink" x="0px" y="0px"
	 viewBox="0 0 512 512" style="enable-background:new 0 0 512 512;" xml:space="preserve">
<g>
	<g>
		<path d="M32.35,215.366c-4.142,0-7.5,3.358-7.5,7.5v33.133c0,4.142,3.358,7.5,7.5,7.5c4.142,0,7.5-3.358,7.5-7.5v-33.133
			C39.85,218.724,36.492,215.366,32.35,215.366z"/>
	</g>
</g>
<g>
	<g>
		<path d="M57.201,215.366c-4.142,0-7.5,3.358-7.5,7.5v33.133c0,4.142,3.358,7.5,7.5,7.5c4.142,0,7.5-3.358,7.5-7.5v-33.133
			C64.701,218.724,61.343,215.366,57.201,215.366z"/>
	</g>
</g>
<g>
	<g>
		<path d="M82.052,215.366c-4.142,0-7.5,3.358-7.5,7.5v33.133c0,4.142,3.358,7.5,7.5,7.5c4.142,0,7.5-3.358,7.5-7.5v-33.133
			C89.552,218.724,86.194,215.366,82.052,215.366z"/>
	</g>
</g>
<g>
	<g>
		<path d="M73.768,368.605c-4.142,0-7.5,3.358-7.5,7.5v8.285c0,4.142,3.358,7.5,7.5,7.5c4.142,0,7.5-3.358,7.5-7.5v-8.285
			C81.268,371.963,77.91,368.605,73.768,368.605z"/>
	</g>
</g>
<g>
	<g>
		<path d="M322.268,347.902c-8.288,0-15.855,3.136-21.584,8.279h-45.465v-0.782c0-4.142-3.358-7.5-7.5-7.5
			c-4.142,0-7.5,3.358-7.5,7.5v0.782h-34.701v-0.782c0-4.142-3.358-7.5-7.5-7.5c-4.142,0-7.5,3.358-7.5,7.5v0.782h-34.702v-0.782
			c0-4.142-3.358-7.5-7.5-7.5c-4.142,0-7.5,3.358-7.5,7.5v0.782H95.352c-5.73-5.143-13.297-8.279-21.584-8.279
			c-17.837,0-32.349,14.512-32.349,32.349c0,17.837,14.511,32.349,32.349,32.349c8.291,0,15.861-3.139,21.592-8.286h45.455v0.784
			c0,4.142,3.358,7.5,7.5,7.5c4.142,0,7.5-3.358,7.5-7.5v-0.784h34.702v0.784c0,4.142,3.358,7.5,7.5,7.5c4.142,0,7.5-3.358,7.5-7.5
			v-0.784h34.701v0.784c0,4.142,3.358,7.5,7.5,7.5c4.142,0,7.5-3.358,7.5-7.5v-0.784h45.457c5.731,5.148,13.301,8.286,21.592,8.286
			c17.837,0,32.349-14.512,32.349-32.349C354.616,362.414,340.105,347.902,322.268,347.902z M73.767,397.6
			c-9.566,0-17.349-7.783-17.349-17.349s7.783-17.349,17.349-17.349c9.566,0,17.349,7.783,17.349,17.349
			C91.116,389.817,83.333,397.6,73.767,397.6z M291.22,389.314H104.815c0.841-2.878,1.301-5.917,1.301-9.063
			c0-3.149-0.461-6.19-1.303-9.07h186.409c-0.843,2.88-1.303,5.921-1.303,9.07C289.919,383.397,290.379,386.436,291.22,389.314z
			 M322.268,397.6c-9.566,0-17.349-7.783-17.349-17.349c0-9.566,7.783-17.349,17.349-17.349c9.566,0,17.349,7.783,17.349,17.349
			S331.834,397.6,322.268,397.6z"/>
	</g>
</g>
<g>
	<g>
		<path d="M322.268,368.605c-4.142,0-7.5,3.358-7.5,7.5v8.285c0,4.142,3.358,7.5,7.5,7.5c4.142,0,7.5-3.358,7.5-7.5v-8.285
			C329.768,371.963,326.41,368.605,322.268,368.605z"/>
	</g>
</g>
<g>
	<g>
		<path d="M511.736,427.975l-49.699-182.232c-0.89-3.263-3.853-5.527-7.236-5.527h-16.567c-1.989,0-3.897,0.79-5.303,2.197
			c-1.407,1.406-2.197,3.314-2.197,5.303l0.001,91.898h-18.139v-42.159c0-0.013,0.002-0.026,0.002-0.039s-0.002-0.026-0.002-0.039
			V264.28c0-31.539-25.66-57.199-57.199-57.199h-9.066v-58.766c0-4.142-3.358-7.5-7.5-7.5h-9.067v-42.2c0-4.142-3.358-7.5-7.5-7.5
			c-4.142,0-7.5,3.358-7.5,7.5v42.202h-9.065c-4.142,0-7.5,3.358-7.5,7.5v58.766h-34.695v-75.334
			c0-31.54-25.66-57.199-57.199-57.199h-27.8c-4.142,0-7.5,3.358-7.5,7.5c0,4.142,3.358,7.5,7.5,7.5h27.8
			c23.269,0,42.199,18.93,42.199,42.199v82.805c0,0.01-0.001,0.019-0.001,0.029s0.001,0.019,0.001,0.029v42.171H230.37V131.749
			c0-13.27-10.796-24.066-24.065-24.066h-75.34V89.549h17.352c4.142,0,7.5-3.358,7.5-7.5c0-4.142-3.358-7.5-7.5-7.5H90.332
			c-4.142,0-7.5,3.358-7.5,7.5l-0.001,108.466h-9.848v-17.35c0-4.142-3.358-7.5-7.5-7.5H32.348c-4.142,0-7.5,3.358-7.5,7.5v17.35
			h-0.78C10.797,190.516,0,201.312,0,214.583v49.702c0,1.989,0.79,3.897,2.197,5.304l12.18,12.179
			c-3.47,0.658-6.095,3.703-6.095,7.364v74.552c0,4.142,3.358,7.5,7.5,7.5h1.512c-0.473,2.955-0.726,5.982-0.726,9.067
			c0,31.54,25.66,57.2,57.2,57.2h248.5c15.665,0,29.874-6.334,40.215-16.57h85.239c10.34,10.234,24.549,16.567,40.212,16.567H504.5
			c2.337,0,4.542-1.09,5.96-2.948C511.879,432.643,512.351,430.23,511.736,427.975z M313.197,155.817h18.132v51.266h-18.132V155.817
			z M281.634,271.782v18.134H162l-6.045-18.134H281.634z M130.962,122.683h75.341c4.999,0,9.065,4.067,9.065,9.066v125.034h-64.414
			l-19.992-59.978V122.683z M97.832,89.549h18.131v100.966H97.831L97.832,89.549z M39.848,180.666h18.135v9.85H39.848V180.666z
			 M15,261.178v-46.595c0-5,4.068-9.067,9.068-9.067h93.987l20.33,60.991c0.002,0.007,0.005,0.013,0.007,0.019l7.797,23.39
			l-102.446,0.002L15,261.178z M23.282,296.631h5.959l6.091,6.09c1.407,1.406,3.314,2.196,5.303,2.196l115.958-0.002h132.54
			c4.142,0,7.5-3.358,7.5-7.5v-33.134c0-4.142-3.358-7.5-7.5-7.5h-25.631v-34.7h91.894c20.708,0,37.968,14.998,41.518,34.699h-41.52
			c-4.142,0-7.5,3.358-7.5,7.5v33.135c0,4.142,3.358,7.5,7.5,7.5h42.201v34.698h-35.119c-10.34-10.232-24.547-16.563-40.208-16.563
			h-248.5c-21.84,0-40.853,12.308-50.486,30.347V296.631z M397.595,271.782v18.135h-34.701v-18.135H397.595z M322.268,422.451
			h-248.5c-23.269,0-42.2-18.931-42.2-42.2c0-23.269,18.931-42.2,42.2-42.2h248.5c23.269,0,42.2,18.931,42.2,42.2
			C364.468,403.52,345.537,422.451,322.268,422.451z M373.381,405.881c3.885-7.716,6.087-16.418,6.087-25.63
			c0-9.214-2.203-17.919-6.09-25.636h57.357v25.634c0,9.212,2.202,17.916,6.088,25.632H373.381z M487.934,422.448
			c-23.269,0-42.199-18.931-42.199-42.199l-0.001-125.033h3.339l45.608,167.232H487.934z"/>
	</g>
</g>
<g>
	<g>
		<path d="M413.378,364.467h-16.566c-4.142,0-7.5,3.358-7.5,7.5c0,4.142,3.358,7.5,7.5,7.5h0.783v9.066c0,4.142,3.358,7.5,7.5,7.5
			c4.142,0,7.5-3.358,7.5-7.5v-9.066h0.783c4.142,0,7.5-3.358,7.5-7.5C420.878,367.825,417.52,364.467,413.378,364.467z"/>
	</g>
</g>
<g>
</g>
<g>
</g>
<g>
</g>
<g>
</g>
<g>
</g>
<g>
</g>
<g>
</g>
<g>
</g>
<g>
</g>
<g>
</g>
<g>
</g>
<g>
</g>
<g>
</g>
<g>
</g>
<g>
</g>
</svg>
